<svg width="64" height="64" viewBox="0 0 64 64" fill="none" xmlns="http://www.w3.org/2000/svg">
<rect x="5.00024" y="9.00012" width="53.9999" height="49.9999" rx="7.99998" fill="url(#paint0_linear_2689_60607)"/>
<rect x="5" y="5" width="53.9999" height="49.9999" rx="7.99998" fill="url(#paint1_linear_2689_60607)"/>
<path d="M51.7102 24.17L49.8873 24.123C49.9125 23.8836 49.9341 23.6038 49.9341 23.3076C49.9341 23.0115 49.9134 22.7317 49.8873 22.4922L51.8745 20.9389C52.2436 20.6473 52.3443 18.7798 52.1094 18.3487L50.0448 16.1265C49.8243 15.7234 49.341 15.5163 48.8505 15.6972L46.5078 16.6377C46.0587 16.3137 45.588 16.0401 45.1011 15.8214L44.7447 13.3366C44.6862 12.8649 44.2758 12.5085 43.7907 12.5085H39.6508C39.1656 12.5085 38.7562 12.8649 38.6985 13.3293L38.3413 15.8233C37.8697 16.0357 37.4062 16.3057 36.9373 16.6395L34.5883 15.6964C34.1481 15.5263 33.6216 15.717 33.4029 16.1184L31.3359 18.23C31.092 18.6422 31.1926 20.6427 31.5697 20.9416L33.5551 22.4941C33.5235 22.7973 33.5083 23.0611 33.5083 23.3086C33.5083 23.5561 33.5236 23.8198 33.5551 24.124L31.3359 24.44C30.9669 24.7324 31.0989 26.4874 31.3338 26.9175L33.3985 30.4896C33.619 30.8919 34.0978 31.1007 34.5927 30.9189L36.9355 29.9785C37.3837 30.3016 37.8543 30.5752 38.3413 30.7947L38.6977 33.2787C38.7561 33.7521 39.1656 34.1085 39.6516 34.1085H43.7916C44.2767 34.1085 44.6871 33.7521 44.7447 33.2877L45.102 30.7947C45.5736 30.5814 46.0362 30.3123 46.506 29.9775L48.855 30.9207C48.9674 30.9647 49.0871 30.9873 49.2078 30.9873C49.557 30.9873 49.8783 30.7965 50.0403 30.4995L52.1139 26.9085C52.3443 26.4873 52.5202 24.17 51.7102 24.17ZM41.7207 26.9085C39.7353 26.9085 38.1208 25.2939 38.1208 23.3085C38.1208 21.3231 39.7353 19.7086 41.7207 19.7086C43.7061 19.7086 45.3207 21.3231 45.3207 23.3085C45.3207 25.2939 43.7061 26.9085 41.7207 26.9085Z" fill="#2C2C2C"/>
<path d="M51.8728 24.1069L49.8874 22.5544C49.9126 22.315 49.9342 22.0352 49.9342 21.739C49.9342 21.4429 49.9135 21.1631 49.8874 20.9236L51.8746 19.3703C52.2436 19.0787 52.3444 18.5611 52.1095 18.1301L50.0449 14.5579C49.8244 14.1548 49.3411 13.9477 48.8506 14.1286L46.5079 15.0691C46.0588 14.7451 45.5881 14.4715 45.1012 14.2528L44.7448 11.768C44.6863 11.2963 44.2759 10.9399 43.7908 10.9399H39.6509C39.1657 10.9399 38.7563 11.2963 38.6986 11.7607L38.3414 14.2547C37.8697 14.4671 37.4063 14.7371 36.9374 15.0709L34.5884 14.1278C34.1482 13.9577 33.6217 14.1484 33.403 14.5498L31.3358 18.1264C31.0919 18.5387 31.1927 19.0741 31.5698 19.373L33.5551 20.9255C33.5236 21.2287 33.5084 21.4925 33.5084 21.74C33.5084 21.9875 33.5237 22.2512 33.5551 22.5554L31.568 24.1088C31.1989 24.4012 31.099 24.9188 31.3339 25.3489L33.3985 28.921C33.6191 29.3233 34.0978 29.5321 34.5928 29.3503L36.9355 28.4099C37.3837 28.733 37.8544 29.0065 38.3414 29.2261L38.6978 31.7101C38.7562 32.1835 39.1657 32.5399 39.6517 32.5399H43.7917C44.2768 32.5399 44.6872 32.1835 44.7448 31.7191L45.1021 29.2261C45.5737 29.0128 46.0363 28.7437 46.5061 28.4089L48.8551 29.3521C48.9675 29.3961 49.0872 29.4187 49.2079 29.4187C49.5571 29.4187 49.8784 29.2279 50.0404 28.9309L52.114 25.3399C52.3444 24.9187 52.2436 24.4012 51.8728 24.1069ZM41.7208 25.3399C39.7354 25.3399 38.1208 23.7253 38.1208 21.7399C38.1208 19.7545 39.7354 18.1399 41.7208 18.1399C43.7062 18.1399 45.3208 19.7545 45.3208 21.7399C45.3208 23.7253 43.7062 25.3399 41.7208 25.3399Z" fill="#565656"/>
<g clip-path="url(#clip0_2689_60607)">
<path d="M12.1295 15.688C12.2174 15.5529 12.3393 15.4433 12.4829 15.3702C12.6266 15.2972 12.787 15.2632 12.9479 15.2719C13.1089 15.2805 13.2647 15.3314 13.6698 15.9593C13.8048 16.0473 13.9143 16.1694 13.9872 16.3131L16.0841 20.4478L19.3692 20.8395L20.9942 17.9577L18.8973 13.823C18.8243 13.6792 18.7906 13.5188 18.7994 13.3578C18.8082 13.1969 18.8789 11.7275 19.0405 11.4801C19.1286 11.3452 19.1576 11.3118 19.3015 11.2391C19.4453 11.1664 19.6058 11.1328 19.7667 11.1418C22.7048 11.3054 25.3538 14.3818 26.6798 16.9967C28.1381 19.8721 27.7702 23.3442 25.7993 25.847L35.0788 42.08C35.684 43.1387 35.8246 44.3651 35.4747 45.5333C35.1247 46.7016 34.333 47.6487 33.2453 48.2003C32.1917 48.7346 31.0027 48.8256 29.8845 48.46C29.8485 48.4482 29.8124 48.4359 29.7765 48.4232C28.6272 48.0153 27.7208 47.1772 27.2242 46.0634L19.6106 28.9864C18.6452 29.0199 17.6815 28.8831 16.7635 28.5824C14.7192 27.9139 12.9598 26.4594 11.9495 24.4671C10.6234 21.8522 10.5258 18.1552 12.1295 15.688ZM30.885 44.9806C31.3667 45.1381 31.8849 44.8753 32.0424 44.3937C32.1999 43.912 31.9371 43.3939 31.4554 43.2364C30.9738 43.0789 30.4556 43.3416 30.2981 43.8233C30.1406 44.3049 30.4033 44.8231 30.885 44.9806Z" fill="#080808"/>
<path d="M12.557 14.6824C12.6448 14.5472 12.7667 14.4376 12.9104 14.3646C13.0541 14.2915 13.2145 14.2576 13.3754 14.2662C13.5364 14.2748 13.6922 14.3257 13.8272 14.4137C13.9623 14.5017 14.0718 14.6237 14.1447 14.7675L16.2416 18.9022L19.5267 19.2938L21.1517 16.4121L19.0547 12.2773C18.9818 12.1336 18.948 11.9731 18.9568 11.8122C18.9656 11.6512 19.0167 11.4954 19.1048 11.3605C19.193 11.2255 19.3151 11.1162 19.4589 11.0435C19.6028 10.9707 19.7633 10.9372 19.9242 10.9462C22.8622 11.1098 25.5112 12.8362 26.8373 15.451C28.2956 18.3264 27.9277 21.7985 25.9567 24.3013L35.2363 40.5344C35.8415 41.5931 35.9821 42.8195 35.6322 43.9877C35.2822 45.1559 34.4905 46.1031 33.4028 46.6547C32.3491 47.189 31.1601 47.28 30.042 46.9143C30.006 46.9026 29.9699 46.8902 29.934 46.8775C28.7847 46.4697 27.8783 45.6316 27.3817 44.5178L19.768 27.4407C18.8027 27.4742 17.8389 27.3375 16.921 27.0368C14.8767 26.3683 13.1173 24.9137 12.107 22.9214C10.7808 20.3066 10.9533 17.1495 12.557 14.6824ZM31.0425 43.435C31.5242 43.5925 32.0423 43.3297 32.1998 42.848C32.3573 42.3664 32.0945 41.8482 31.6129 41.6907C31.1313 41.5332 30.6131 41.796 30.4556 42.2776C30.2981 42.7593 30.5608 43.2775 31.0425 43.435Z" fill="#252525"/>
</g>
<path d="M53.0599 29.9402C53.0599 28.3937 54.3136 27.14 55.8601 27.14H58.9999V46.9998C58.9999 51.418 55.4183 55 51.0001 55.0001H12.9998C8.58161 55 5 51.418 5 46.9998V27.14L8.1398 27.14C9.6863 27.14 10.94 28.3937 10.94 29.9402C10.9401 34.3583 10.3019 36.3199 14.72 36.32H49.28C53.6981 36.3199 53.0598 34.3583 53.0599 29.9402Z" fill="url(#paint2_linear_2689_60607)"/>
<rect x="5.7" y="5.7" width="52.5999" height="48.5999" rx="7.29998" stroke="url(#paint3_linear_2689_60607)" stroke-width="1.4" style="mix-blend-mode:soft-light"/>
<defs>
<linearGradient id="paint0_linear_2689_60607" x1="5.00024" y1="59" x2="59.0001" y2="59" gradientUnits="userSpaceOnUse">
<stop stop-color="#CDCCC9"/>
<stop offset="0.05" stop-color="#ADABA7"/>
<stop offset="0.15" stop-color="#838383"/>
<stop offset="0.85" stop-color="#838383"/>
<stop offset="0.95" stop-color="#ADABA7"/>
<stop offset="1" stop-color="#CDCCC9"/>
</linearGradient>
<linearGradient id="paint1_linear_2689_60607" x1="31.9999" y1="5" x2="31.9999" y2="54.9999" gradientUnits="userSpaceOnUse">
<stop stop-color="#C5C2BC"/>
<stop offset="1" stop-color="#7C7C7C"/>
</linearGradient>
<linearGradient id="paint2_linear_2689_60607" x1="63.3199" y1="31.46" x2="3.11" y2="48.2" gradientUnits="userSpaceOnUse">
<stop stop-color="#EFEDEC"/>
<stop offset="1" stop-color="#BEBBB8"/>
</linearGradient>
<linearGradient id="paint3_linear_2689_60607" x1="31.9999" y1="1.00001" x2="31.9999" y2="60.9999" gradientUnits="userSpaceOnUse">
<stop stop-color="white" stop-opacity="0.9"/>
<stop offset="1" stop-color="white" stop-opacity="0.1"/>
</linearGradient>
<clipPath id="clip0_2689_60607">
<rect width="31.32" height="31.32" fill="white" transform="matrix(-0.950472 -0.310812 -0.310812 0.950472 43.9634 18.5146)"/>
</clipPath>
</defs>
</svg>
